<svg width="249" height="81" viewBox="0 0 249 81" fill="none" xmlns="http://www.w3.org/2000/svg">
<g clip-path="url(#clip0_41_5437)">
<path d="M114.505 64.0993C113.713 63.5219 112.817 63.2044 111.85 63.0823C110.585 62.9218 109.364 63.0613 108.209 63.637C107.065 64.2057 106.282 65.1094 105.781 66.266C105.439 67.0528 105.315 67.8884 105.291 68.7414C105.261 69.7829 105.371 70.8052 105.781 71.7752C106.207 72.7817 106.862 73.6086 107.805 74.1791C109.143 74.9903 110.599 75.1717 112.119 74.9257C113.242 74.7443 114.247 74.2872 115.102 73.5266C115.639 73.0504 116.028 72.4695 116.325 71.8083C116.365 71.7211 116.299 71.6199 116.201 71.6199H114.032C113.987 71.6199 113.943 71.6426 113.916 71.6792C113.732 71.9269 113.516 72.1485 113.26 72.3369C112.565 72.8463 111.777 73.0696 110.922 73.0731C110.172 73.0748 109.481 72.8777 108.87 72.4293C108.309 72.0159 107.951 71.4594 107.745 70.8035C107.677 70.5889 107.634 70.3673 107.583 70.1353C107.564 70.0446 107.632 69.9591 107.726 69.9591H116.483C116.557 69.9591 116.62 69.9068 116.628 69.8335C116.789 68.6595 116.628 67.283 116.164 66.2084C115.8 65.3641 115.255 64.6453 114.505 64.0976V64.0993ZM114.224 68.0018H107.743C107.654 68.0018 107.585 67.9233 107.599 67.8343C107.859 66.2608 108.954 65.0832 110.622 64.9785C112.694 64.8494 114.043 66.0008 114.369 67.8308C114.385 67.9198 114.315 68 114.224 68V68.0018Z" fill="#869499"/>
<path d="M138.337 62.9548C136.647 62.981 135.298 63.5863 134.524 65.207V65.2035L134.265 63.2654C134.255 63.1938 134.194 63.1398 134.122 63.1398H132.195C132.114 63.1398 132.05 63.2043 132.05 63.2845V74.7268C132.05 74.807 132.114 74.8716 132.195 74.8716H134.379C134.459 74.8716 134.524 74.807 134.524 74.7268V69.2979C134.536 68.607 134.654 67.9232 134.883 67.2673C135.066 66.7387 135.317 66.2485 135.734 65.8577C136.24 65.3832 136.868 65.1913 137.529 65.0919C137.8 65.0517 138.075 65.0343 138.351 65.0116C138.426 65.0046 138.484 64.9418 138.484 64.8668V63.1014C138.484 63.0211 138.417 62.9548 138.337 62.9548Z" fill="#869499"/>
<path d="M100.867 74.8017C100.923 74.8575 100.999 74.8889 101.08 74.8889H104.042C104.139 74.8889 104.218 74.8104 104.218 74.7127V72.888C104.218 72.7903 104.139 72.7118 104.042 72.7118H101.606C101.497 72.7118 101.406 72.6228 101.406 72.5112V64.7655H103.836C103.934 64.7655 104.012 64.687 104.012 64.5893V62.7646C104.012 62.6669 103.934 62.5884 103.836 62.5884H101.406V59.1761C101.406 59.047 101.272 58.9616 101.155 59.0174L99.2496 59.9158C99.1886 59.9455 99.1502 60.0065 99.1502 60.0746V62.5901H98.2099C98.1122 62.5901 98.0337 62.6686 98.0337 62.7663V64.5911C98.0337 64.6888 98.1122 64.7673 98.2099 64.7673H99.1502V72.9613C99.1502 73.0415 99.1816 73.1165 99.2374 73.1741L100.867 74.8035V74.8017Z" fill="#869499"/>
<path d="M127.699 63.7416C126.858 63.2601 125.904 63.0194 124.834 63.0194C123.231 63.0194 121.963 63.6457 121.031 64.8982L120.714 59.2303C120.707 59.1012 120.567 59.0245 120.454 59.0873L118.647 59.9717C118.591 60.0031 118.558 60.0607 118.558 60.1252V74.7146C118.558 74.8105 118.636 74.889 118.732 74.889H120.564C120.649 74.889 120.721 74.828 120.737 74.7442L121.009 73.1934C121.406 73.7586 121.925 74.2052 122.567 74.5331C123.208 74.8611 123.964 75.0251 124.834 75.0251C125.904 75.0251 126.858 74.7721 127.699 74.2697C128.538 73.7656 129.196 73.059 129.67 72.1501C130.143 71.2413 130.38 70.1998 130.38 69.0222C130.38 67.7854 130.143 66.716 129.67 65.8141C129.197 64.9122 128.54 64.2213 127.699 63.7399V63.7416ZM126.877 72.1501C126.223 72.9352 125.366 73.3259 124.309 73.3259C123.252 73.3259 122.401 72.9299 121.754 72.1379C121.106 71.3459 120.784 70.3219 120.784 69.0676C120.784 67.8133 121.106 66.8224 121.754 66.0461C122.401 65.2698 123.252 64.8825 124.309 64.8825C125.366 64.8825 126.221 65.275 126.877 66.0583C127.531 66.8433 127.859 67.8534 127.859 69.092C127.859 70.3306 127.531 71.3669 126.877 72.1501Z" fill="#869499"/>
<path d="M150.603 63.1571H148.771C148.685 63.1571 148.612 63.2181 148.598 63.3019L148.326 64.8754C147.928 64.2945 147.41 63.8409 146.768 63.5129C146.126 63.185 145.371 63.021 144.5 63.021C143.447 63.021 142.499 63.2687 141.659 63.7659C140.818 64.2631 140.158 64.9661 139.677 65.8733C139.195 66.7822 138.955 67.8324 138.955 69.0239C138.955 70.2154 139.192 71.3109 139.665 72.2198C140.137 73.1287 140.795 73.823 141.636 74.3045C142.475 74.786 143.431 75.0267 144.5 75.0267C145.355 75.0267 146.104 74.8505 146.746 74.4999C147.388 74.1492 147.914 73.6834 148.326 73.1025L148.577 74.7406C148.591 74.8261 148.665 74.8889 148.75 74.8889H150.601C150.697 74.8889 150.775 74.8104 150.775 74.7144V63.3333C150.775 63.2373 150.697 63.1588 150.601 63.1588L150.603 63.1571ZM147.478 72.1378C146.831 72.9298 145.98 73.3258 144.923 73.3258C143.865 73.3258 143.011 72.9333 142.355 72.15C141.7 71.3667 141.372 70.3462 141.372 69.0919C141.372 67.8376 141.7 66.8432 142.355 66.0582C143.009 65.2749 143.865 64.8824 144.923 64.8824C145.98 64.8824 146.831 65.2697 147.478 66.046C148.125 66.8223 148.448 67.8289 148.448 69.0675C148.448 70.3061 148.125 71.3458 147.478 72.1378Z" fill="#869499"/>
<path d="M169.555 70.6916L169.541 70.8783C169.496 71.5063 169.355 72.068 169.124 72.546C168.892 73.024 168.573 73.4602 168.174 73.8439C167.758 74.2452 167.266 74.5609 166.713 74.7825C166.16 75.0058 165.515 75.1192 164.798 75.1192C163.746 75.1192 162.863 74.9046 162.178 74.4807C161.499 74.0603 160.944 73.5369 160.531 72.9246C160.224 72.464 159.983 71.9058 159.816 71.2673C159.65 70.6323 159.564 69.8752 159.564 69.0151C159.564 68.1551 159.65 67.3997 159.816 66.7647C159.983 66.1245 160.224 65.568 160.531 65.1074C160.944 64.4951 161.499 63.9718 162.178 63.5513C162.863 63.1274 163.737 62.9128 164.777 62.9128C165.463 62.9128 166.096 63.0227 166.656 63.2373C167.218 63.4536 167.708 63.7659 168.109 64.1671C168.505 64.5492 168.83 64.9888 169.067 65.4738C169.306 65.9605 169.451 66.5327 169.498 67.1764L169.51 67.3631H167.251L167.233 67.2078C167.191 66.8432 167.102 66.5222 166.972 66.2501C166.839 65.9797 166.673 65.7442 166.481 65.5505C166.279 65.3621 166.028 65.2051 165.737 65.0882C165.447 64.9714 165.122 64.9121 164.777 64.9121C164.372 64.9121 164.022 64.9766 163.734 65.1074C163.437 65.2418 163.165 65.411 162.926 65.6064C162.514 65.964 162.228 66.4525 162.082 67.0508C161.93 67.6736 161.853 68.3348 161.853 69.0151C161.853 69.6955 161.93 70.3584 162.082 70.9812C162.228 71.5813 162.514 72.068 162.93 72.4274C163.165 72.6228 163.437 72.7903 163.734 72.9246C164.022 73.0554 164.372 73.12 164.777 73.12C165.138 73.12 165.48 73.0572 165.792 72.9333C166.101 72.8094 166.363 72.6367 166.565 72.4187C166.762 72.2215 166.919 71.9983 167.036 71.7488C167.155 71.4993 167.235 71.1958 167.279 70.8451L167.296 70.6916H169.555Z" fill="#869499"/>
<path d="M180.901 66.4507C180.671 65.636 180.23 64.9051 179.584 64.277C179.155 63.8619 178.639 63.5287 178.049 63.2827C177.458 63.0367 176.786 62.9128 176.053 62.9128C175.321 62.9128 174.651 63.0367 174.059 63.2827C173.468 63.5287 172.952 63.8619 172.523 64.277C171.879 64.9051 171.436 65.636 171.205 66.4507C170.979 67.2497 170.865 68.1132 170.865 69.0151C170.865 69.9171 170.979 70.7823 171.205 71.5813C171.436 72.396 171.879 73.127 172.523 73.755C172.953 74.1702 173.47 74.5051 174.059 74.7493C174.651 74.9936 175.321 75.1192 176.053 75.1192C176.786 75.1192 177.458 74.9936 178.049 74.7493C178.637 74.5051 179.155 74.1702 179.586 73.755C180.23 73.127 180.671 72.396 180.901 71.5813C181.128 70.7823 181.243 69.9188 181.243 69.0151C181.243 68.1115 181.128 67.2497 180.901 66.4507ZM176.053 73.1427C175.635 73.1427 175.265 73.0729 174.954 72.9351C174.64 72.7955 174.37 72.6141 174.152 72.3943C173.773 72.0017 173.512 71.5046 173.37 70.9149C173.226 70.3078 173.152 69.6676 173.152 69.0151C173.152 68.3627 173.226 67.7242 173.37 67.1171C173.512 66.5275 173.773 66.0303 174.148 65.6395C174.37 65.4197 174.642 65.2365 174.954 65.097C175.265 64.9592 175.635 64.8894 176.053 64.8894C176.472 64.8894 176.842 64.9592 177.152 65.097C177.466 65.2365 177.737 65.418 177.957 65.6378C178.333 66.0285 178.597 66.5275 178.736 67.1171C178.881 67.7259 178.955 68.3644 178.955 69.0151C178.955 69.6658 178.881 70.3061 178.736 70.9149C178.597 71.5046 178.333 72.0035 177.958 72.3925C177.737 72.6141 177.466 72.7955 177.152 72.9351C176.844 73.0729 176.474 73.1427 176.053 73.1427Z" fill="#869499"/>
<path d="M199.006 67.2322V74.8296H196.763V67.4782C196.763 67.0927 196.726 66.7386 196.656 66.4245C196.587 66.1227 196.473 65.8646 196.318 65.6535C196.166 65.4494 195.953 65.2836 195.685 65.1633C195.411 65.0411 195.06 64.9783 194.641 64.9783C194.313 64.9783 194.015 65.0394 193.759 65.1615C193.497 65.2854 193.26 65.4598 193.052 65.6814C192.688 66.046 192.445 66.4873 192.326 66.9933C192.204 67.5201 192.142 68.0801 192.142 68.6593V74.8296H189.898V67.4782C189.898 67.0909 189.867 66.7351 189.802 66.4211C189.741 66.121 189.631 65.8628 189.476 65.6535C189.324 65.4494 189.11 65.2836 188.843 65.1633C188.569 65.0411 188.218 64.9783 187.799 64.9783C187.431 64.9783 187.098 65.0638 186.807 65.233C186.507 65.4075 186.242 65.636 186.018 65.9151C185.755 66.2483 185.568 66.674 185.464 67.1799C185.354 67.6998 185.3 68.1987 185.3 68.6593V74.8296H183.056V63.2024H185.036L185.172 64.4236C185.464 63.9892 185.842 63.6455 186.303 63.4013C186.912 63.0768 187.559 62.9128 188.223 62.9128C189.099 62.9128 189.848 63.1065 190.446 63.4868C190.943 63.8043 191.33 64.2456 191.599 64.8039C191.726 64.5719 191.878 64.3608 192.051 64.1724C192.307 63.8933 192.602 63.6577 192.928 63.4711C193.253 63.2862 193.602 63.1449 193.963 63.0524C194.324 62.9599 194.696 62.9128 195.065 62.9128C196.391 62.9128 197.394 63.3176 198.042 64.1148C198.682 64.8998 199.006 65.95 199.006 67.2322Z" fill="#869499"/>
<path d="M211.422 66.3304C211.139 65.4913 210.717 64.7795 210.167 64.2143C209.782 63.813 209.307 63.4955 208.759 63.2722C208.213 63.0489 207.571 62.9355 206.854 62.9355C206.193 62.9355 205.523 63.0943 204.864 63.4083C204.358 63.6508 203.941 63.9735 203.62 64.373L203.515 63.2251H201.509V79.6654H203.753V73.8876C203.845 73.9905 203.948 74.0865 204.058 74.1772C204.314 74.3865 204.602 74.5627 204.911 74.7023C205.216 74.8401 205.537 74.9482 205.869 75.025C206.199 75.1018 206.532 75.1419 206.854 75.1419C207.544 75.1419 208.161 75.032 208.693 74.8157C209.222 74.6011 209.686 74.3132 210.075 73.9556C210.656 73.3887 211.102 72.6647 211.399 71.8029C211.694 70.9498 211.844 70.0113 211.844 69.0152C211.844 68.019 211.702 67.1625 211.422 66.3304ZM206.542 64.8894C207.132 64.8894 207.626 65.008 208.013 65.2418C208.4 65.479 208.711 65.7948 208.932 66.1821C209.159 66.5798 209.321 67.0299 209.414 67.5219C209.508 68.0208 209.555 68.5319 209.555 69.0378C209.555 69.5438 209.508 70.0549 209.414 70.5556C209.321 71.0458 209.159 71.4976 208.932 71.8936C208.711 72.2809 208.4 72.5984 208.013 72.8339C207.626 73.0694 207.132 73.188 206.542 73.188C206.155 73.188 205.825 73.1217 205.56 72.9926C205.288 72.8601 205.044 72.6943 204.831 72.4955C204.382 72.1047 204.07 71.604 203.903 71.0074C203.73 70.3951 203.641 69.7322 203.641 69.0378C203.641 68.3435 203.73 67.6824 203.903 67.0683C204.07 66.4734 204.382 65.9727 204.834 65.5767C205.044 65.3831 205.288 65.2156 205.56 65.083C205.825 64.9539 206.155 64.8894 206.542 64.8894Z" fill="#869499"/>
<path d="M236.41 67.2322V74.8296H234.167V67.5009C234.167 66.6984 233.989 66.0669 233.636 65.6256C233.295 65.1964 232.7 64.9783 231.868 64.9783C231.36 64.9783 230.908 65.1266 230.526 65.4214C230.134 65.7232 229.813 66.1262 229.574 66.6182C229.392 67.0107 229.28 67.4695 229.246 67.9806C229.209 68.5075 229.19 68.9907 229.19 69.4164V74.8296H226.946V63.2024H228.93L229.048 64.5056C229.155 64.3556 229.275 64.216 229.406 64.0886C229.669 63.8322 229.968 63.6159 230.294 63.4449C230.617 63.2757 230.959 63.1449 231.311 63.0524C231.665 62.9599 232.011 62.9128 232.337 62.9128C233.673 62.9128 234.701 63.3001 235.386 64.0625C236.067 64.8213 236.41 65.8872 236.41 67.2322Z" fill="#869499"/>
<path d="M248.433 63.2024L243.264 77.0329C242.989 77.783 242.607 78.3936 242.129 78.8489C241.637 79.3164 240.935 79.5537 240.047 79.5537C239.562 79.5537 239.161 79.5223 238.854 79.4595C238.442 79.3775 238.324 79.3391 238.266 79.3164L238.156 79.2711V77.2614L238.373 77.3155C238.489 77.3451 238.62 77.373 238.767 77.4027C238.884 77.4324 239.015 77.4533 239.161 77.4673C239.313 77.4812 239.484 77.4882 239.669 77.4882C240.037 77.4882 240.353 77.4149 240.606 77.2666C240.852 77.1253 241.05 76.8567 241.199 76.4659L241.888 74.6394L237.315 63.2024H239.835L243.03 71.761L246.075 63.2024H248.433Z" fill="#869499"/>
<path d="M224.851 63.1571H223.019C222.934 63.1571 222.86 63.2181 222.846 63.3019L222.574 64.8754C222.176 64.2945 221.658 63.8409 221.016 63.5129C220.374 63.185 219.619 63.021 218.748 63.021C217.695 63.021 216.747 63.2687 215.907 63.7659C215.066 64.2631 214.406 64.9661 213.925 65.8733C213.443 66.7822 213.203 67.8324 213.203 69.0239C213.203 70.2154 213.44 71.3109 213.913 72.2198C214.385 73.1287 215.043 73.823 215.884 74.3045C216.723 74.786 217.679 75.0267 218.748 75.0267C219.603 75.0267 220.352 74.8505 220.994 74.4999C221.636 74.1492 222.162 73.6834 222.574 73.1025L222.825 74.7406C222.839 74.8261 222.913 74.8889 222.998 74.8889H224.849C224.945 74.8889 225.023 74.8104 225.023 74.7144V63.3333C225.023 63.2373 224.945 63.1588 224.849 63.1588L224.851 63.1571ZM221.726 72.1378C221.079 72.9298 220.228 73.3258 219.171 73.3258C218.113 73.3258 217.259 72.9333 216.603 72.15C215.948 71.3667 215.621 70.3462 215.621 69.0919C215.621 67.8376 215.948 66.8432 216.603 66.0582C217.257 65.2749 218.113 64.8824 219.171 64.8824C220.228 64.8824 221.079 65.2697 221.726 66.046C222.374 66.8223 222.696 67.8289 222.696 69.0675C222.696 70.3061 222.374 71.3458 221.726 72.1378Z" fill="#869499"/>
<path d="M88.0812 63.1571H86.2495C86.164 63.1571 86.0907 63.2181 86.0768 63.3019L85.8046 64.8754C85.4069 64.2945 84.8887 63.8409 84.2468 63.5129C83.6048 63.185 82.8494 63.021 81.9789 63.021C80.9252 63.021 79.978 63.2687 79.1371 63.7659C78.2962 64.2631 77.6368 64.9661 77.1553 65.8733C76.6738 66.7822 76.4331 67.8324 76.4331 69.0239C76.4331 70.2154 76.6704 71.3109 77.1431 72.2198C77.6159 73.1287 78.2736 73.823 79.1144 74.3045C79.9535 74.786 80.9095 75.0267 81.9789 75.0267C82.8337 75.0267 83.5821 74.8505 84.2241 74.4999C84.8661 74.1492 85.3929 73.6834 85.8046 73.1025L86.0558 74.7406C86.0698 74.8261 86.1431 74.8889 86.2285 74.8889H88.0795C88.1754 74.8889 88.2539 74.8104 88.2539 74.7144V63.3333C88.2539 63.2373 88.1754 63.1588 88.0795 63.1588L88.0812 63.1571ZM84.9568 72.1378C84.3096 72.9298 83.4582 73.3258 82.4011 73.3258C81.3439 73.3258 80.4891 72.9333 79.8332 72.15C79.179 71.3667 78.851 70.3462 78.851 69.0919C78.851 67.8376 79.179 66.8432 79.8332 66.0582C80.4873 65.2749 81.3439 64.8824 82.4011 64.8824C83.4582 64.8824 84.3096 65.2697 84.9568 66.046C85.604 66.8223 85.9267 67.8289 85.9267 69.0675C85.9267 70.3061 85.604 71.3458 84.9568 72.1378Z" fill="#869499"/>
<path d="M203.753 79.5625L201.509 77.4307V79.6654H203.753V79.5625Z" fill="#869499"/>
</g>
<path d="M22.3598 27.57C25.1994 28.9349 29.1291 26.7106 31.0813 22.5148C33.0335 18.319 32.349 13.9715 29.5094 12.6066C26.6699 11.2417 22.7401 13.4913 20.7625 17.6618C18.785 21.8324 19.4949 26.1798 22.3598 27.57Z" fill="#F7941D"/>
<path d="M42.0345 43.1153C42.0345 53.2257 54.7111 70.1606 56.0549 72.8398C56.5175 73.6907 56.794 74.6297 56.8662 75.5949C56.894 76.2473 56.7782 76.8979 56.527 77.5009C56.2758 78.104 55.8952 78.6449 55.412 79.0857C54.9288 79.5265 54.3546 79.8565 53.7299 80.0525C53.1051 80.2485 52.4449 80.3058 51.7955 80.2204C50.9952 80.203 50.2105 79.997 49.5054 79.6191C48.8004 79.2413 48.195 78.7025 47.739 78.0467C46.3952 76.5301 38.7639 66.2933 36.5581 63.3361C30.9804 55.7533 22.0307 48.2969 17.2136 63.3361C14.6782 71.5507 14.9825 80.3215 9.37939 80.3215C0.277551 80.3215 -4.31139 38.5909 5.52569 9.19492C7.12295 4.49359 9.91181 -0.662705 13.5627 0.449438C18.7855 2.01655 15.8698 9.39713 15.1346 12.6577C14.3993 15.9183 10.1907 30.7806 19.0644 34.6731C27.938 38.5656 43.7078 20.746 45.9642 18.8251C46.2785 18.4545 46.6631 18.1494 47.0959 17.9272C47.5286 17.705 48.0011 17.5701 48.4862 17.5302C48.9714 17.4903 49.4596 17.5461 49.9231 17.6946C50.3865 17.8431 50.816 18.0812 51.187 18.3954C51.5375 18.7642 51.8111 19.1986 51.992 19.6735C52.1729 20.1484 52.2576 20.6544 52.2411 21.1621C52.2246 21.6698 52.1072 22.1693 51.8959 22.6315C51.6845 23.0937 51.3832 23.5096 51.0095 23.855C49.6658 25.5737 42.0345 34.1423 42.0345 43.1153Z" fill="#F7941D"/>
<path d="M205.349 15.3152C202.134 15.2969 198.986 16.2352 196.304 18.0113C193.622 19.7873 191.527 22.321 190.284 25.2914C189.041 28.2617 188.706 31.5348 189.322 34.6959C189.938 37.857 191.477 40.7638 193.744 43.0477C196.011 45.3316 198.903 46.8898 202.055 47.5249C205.207 48.16 208.477 47.8434 211.449 46.6151C214.421 45.3868 216.962 43.3023 218.75 40.6256C220.538 37.9489 221.493 34.8007 221.493 31.5799C221.501 27.2797 219.806 23.152 216.779 20.1026C213.753 17.0533 209.642 15.3315 205.349 15.3152ZM205.349 41.1292C203.461 41.1414 201.612 40.5917 200.037 39.5499C198.461 38.508 197.23 37.021 196.499 35.2771C195.768 33.5333 195.57 31.6114 195.931 29.7549C196.292 27.8985 197.195 26.1912 198.525 24.8496C199.856 23.5079 201.555 22.5923 203.405 22.2188C205.256 21.8453 207.176 22.0308 208.921 22.7517C210.667 23.4726 212.159 24.6965 213.209 26.2682C214.26 27.8399 214.82 29.6886 214.82 31.5799C214.824 32.8299 214.583 34.0684 214.109 35.2248C213.635 36.3812 212.939 37.4328 212.059 38.3195C211.18 39.2063 210.134 39.9108 208.983 40.3929C207.832 40.875 206.597 41.1252 205.349 41.1292Z" fill="#F7941D"/>
<path d="M186.469 28.1936C185.935 24.6306 184.148 21.3759 181.431 19.0153C178.714 16.6547 175.244 15.3434 171.648 15.3174C167.523 15.5721 163.649 17.3933 160.818 20.4098C157.987 23.4262 156.411 27.4108 156.411 31.5513C156.411 35.6917 157.987 39.6763 160.818 42.6928C163.649 45.7092 167.523 47.5304 171.648 47.7851C173.871 47.8014 176.074 47.377 178.133 46.5364C180.191 45.6958 182.063 44.4556 183.64 42.8872C184.266 42.2383 184.616 41.3713 184.616 40.4691C184.616 39.5669 184.266 38.6999 183.64 38.051C183.004 37.4373 182.156 37.0945 181.273 37.0945C180.39 37.0945 179.541 37.4373 178.905 38.051C176.937 39.9418 174.342 41.0387 171.617 41.1314C169.468 41.1215 167.386 40.382 165.71 39.0336C164.035 37.6853 162.865 35.8077 162.392 33.7076H183.302C183.742 33.7076 184.178 33.6207 184.585 33.452C184.991 33.2832 185.361 33.0359 185.672 32.7241C185.983 32.4123 186.23 32.0422 186.399 31.6348C186.567 31.2274 186.654 30.7908 186.654 30.3499C186.637 29.628 186.575 28.9079 186.469 28.1936ZM163.284 26.9922C164.093 25.4927 165.292 24.2402 166.753 23.3672C168.215 22.4941 169.885 22.0331 171.586 22.0327C173.186 22.0084 174.755 22.469 176.089 23.354C177.422 24.2391 178.457 25.5073 179.059 26.9922H163.284Z" fill="#F7941D"/>
<path d="M154.705 15.5007C151.32 15.4917 148.022 16.5715 145.295 18.5811C145.241 17.7502 144.875 16.9706 144.27 16.3992C143.665 15.8277 142.867 15.5067 142.036 15.5007C141.596 15.4925 141.159 15.5726 140.751 15.7365C140.342 15.9004 139.971 16.1446 139.658 16.4548C139.346 16.765 139.099 17.1348 138.931 17.5423C138.764 17.9499 138.68 18.3869 138.684 18.8276V44.3335C138.658 44.7855 138.727 45.2379 138.885 45.6621C139.043 46.0862 139.287 46.4727 139.602 46.7972C139.918 47.1216 140.297 47.3768 140.716 47.5467C141.134 47.7165 141.584 47.7972 142.036 47.7836C142.908 47.7836 143.745 47.4364 144.362 46.8182C144.979 46.2001 145.326 45.3617 145.326 44.4876V31.5806C145.326 25.1117 148.955 22.5241 154.551 21.9696C155.414 21.8909 156.225 21.5175 156.846 20.9119C157.467 20.3063 157.862 19.5052 157.964 18.6428C157.974 18.217 157.895 17.794 157.732 17.4004C157.57 17.0068 157.328 16.6511 157.022 16.3559C156.716 16.0606 156.352 15.8322 155.953 15.685C155.554 15.5378 155.129 15.4751 154.705 15.5007Z" fill="#F7941D"/>
<path d="M101.476 42.1762L90.5597 29.4541L100.154 21.3525C100.83 20.7885 101.255 19.9786 101.336 19.1006C101.417 18.2227 101.146 17.3486 100.584 16.6703C100.304 16.3402 99.9612 16.0688 99.576 15.8715C99.1907 15.6743 98.7704 15.555 98.3391 15.5207C97.9078 15.4864 97.474 15.5376 97.0625 15.6714C96.651 15.8052 96.2699 16.0191 95.941 16.3006L82.9337 27.267V12.3269C82.9378 11.8914 82.8557 11.4595 82.6921 11.0561C82.5286 10.6526 82.2869 10.2856 81.981 9.97625C81.675 9.66692 81.3109 9.42137 80.9097 9.25381C80.5085 9.08624 80.0781 8.99998 79.6435 9C79.2088 8.99998 78.7784 9.08624 78.3772 9.25381C77.976 9.42137 77.6119 9.66692 77.306 9.97625C77 10.2856 76.7583 10.6526 76.5948 11.0561C76.4313 11.4595 76.3491 11.8914 76.3532 12.3269V44.3325C76.3324 44.7782 76.4021 45.2234 76.5581 45.6412C76.7141 46.0591 76.9532 46.4409 77.2608 46.7634C77.5684 47.086 77.9382 47.3427 78.3478 47.5178C78.7573 47.693 79.1981 47.7831 79.6435 47.7826C80.5161 47.7826 81.353 47.4354 81.97 46.8172C82.5871 46.1991 82.9337 45.3607 82.9337 44.4866V35.8922L85.5167 33.7051L96.5252 46.4888C96.8078 46.8167 97.152 47.0856 97.5384 47.2801C97.9247 47.4746 98.3455 47.5909 98.7767 47.6223C99.208 47.6538 99.6412 47.5998 100.052 47.4635C100.462 47.3271 100.841 47.1111 101.168 46.8277C101.497 46.5449 101.766 46.1992 101.96 45.811C102.154 45.4228 102.268 44.9997 102.297 44.5666C102.326 44.1335 102.268 43.6991 102.127 43.2886C101.986 42.8782 101.765 42.5 101.476 42.1762Z" fill="#F7941D"/>
<path d="M130.72 15.5011C129.932 15.508 129.173 15.7979 128.581 16.3179C127.988 16.838 127.602 17.5537 127.491 18.3351C124.811 16.372 121.586 15.2951 118.266 15.2546C113.979 15.2791 109.876 17.0044 106.856 20.0529C103.836 23.1014 102.145 27.2245 102.153 31.5193C102.031 33.6636 102.359 35.8096 103.114 37.8196C103.869 39.8297 105.036 41.6592 106.539 43.1909C108.041 44.7225 109.848 45.9224 111.841 46.7134C113.834 47.5044 115.97 47.8691 118.112 47.784C119.988 47.7988 121.833 47.3093 123.456 46.3666C125.079 45.4238 126.419 44.0623 127.338 42.424V42.2084V44.3031C127.312 44.7591 127.381 45.2156 127.541 45.6434C127.7 46.0713 127.947 46.4612 128.265 46.7885C128.583 47.1158 128.965 47.3733 129.388 47.5447C129.811 47.716 130.264 47.7975 130.72 47.784C131.152 47.784 131.58 47.6987 131.979 47.5331C132.378 47.3675 132.741 47.1247 133.047 46.8186C133.352 46.5125 133.594 46.1492 133.76 45.7493C133.925 45.3494 134.01 44.9208 134.01 44.4879V18.8279C134.01 17.9509 133.665 17.1094 133.048 16.4863C132.432 15.8633 131.595 15.5092 130.72 15.5011ZM118.112 41.1611C115.573 41.1529 113.141 40.1367 111.348 38.3352C109.556 36.5337 108.549 34.0938 108.549 31.5501C108.549 29.0093 109.557 26.5726 111.35 24.7759C113.144 22.9793 115.576 21.97 118.112 21.97C120.649 21.97 123.081 22.9793 124.875 24.7759C126.668 26.5726 127.676 29.0093 127.676 31.5501C127.676 34.0938 126.669 36.5337 124.877 38.3352C123.084 40.1367 120.652 41.1529 118.112 41.1611Z" fill="#F7941D"/>
<defs>
<clipPath id="clip0_41_5437">
<rect width="172" height="20.6655" fill="white" transform="translate(76.4331 59)"/>
</clipPath>
</defs>
</svg>
