<svg xmlns="http://www.w3.org/2000/svg" xmlns:xlink="http://www.w3.org/1999/xlink" width="200" zoomAndPan="magnify" viewBox="0 0 150 47.25" height="63" preserveAspectRatio="xMidYMid meet" version="1.0"><defs><g/><clipPath id="id1"><path d="M 1.171875 8 L 36 8 L 36 33 L 1.171875 33 Z M 1.171875 8 " clip-rule="nonzero"/></clipPath><clipPath id="id2"><path d="M 148 32 L 148.828125 32 L 148.828125 33 L 148 33 Z M 148 32 " clip-rule="nonzero"/></clipPath></defs><g clip-path="url(#id1)"><g fill="#08a3f4" fill-opacity="1"><g transform="translate(1.171876, 32.65707)"><g><path d="M 7.324219 0 L 13.265625 0 C 13.671875 0 13.941406 -0.203125 14.042969 -0.574219 L 15.425781 -5.773438 C 16.101562 -8.335938 16.980469 -13.300781 17.214844 -15.527344 L 17.351562 -15.527344 C 17.585938 -13.300781 18.464844 -8.335938 19.140625 -5.773438 L 20.523438 -0.574219 C 20.625 -0.203125 20.894531 0 21.300781 0 L 27.242188 0 C 27.613281 0 27.917969 -0.167969 28.015625 -0.574219 L 34.429688 -23.394531 C 34.566406 -23.832031 34.328125 -24.136719 33.855469 -24.136719 L 28.320312 -24.136719 C 27.917969 -24.136719 27.644531 -23.898438 27.578125 -23.527344 L 26.566406 -18.835938 C 26.058594 -16.609375 24.878906 -10.699219 24.40625 -7.5625 L 24.238281 -7.5625 C 23.730469 -10.769531 22.75 -15.59375 21.976562 -18.632812 L 20.792969 -23.222656 C 20.691406 -23.59375 20.457031 -23.796875 20.050781 -23.796875 L 14.515625 -23.796875 C 14.109375 -23.796875 13.875 -23.59375 13.773438 -23.222656 L 12.589844 -18.632812 C 11.816406 -15.5625 10.800781 -10.769531 10.328125 -7.5625 L 10.160156 -7.5625 C 9.6875 -10.699219 8.507812 -16.609375 8 -18.835938 L 6.988281 -23.527344 C 6.921875 -23.898438 6.648438 -24.136719 6.246094 -24.136719 L 0.707031 -24.136719 C 0.234375 -24.136719 0 -23.832031 0.136719 -23.394531 L 6.546875 -0.574219 C 6.648438 -0.167969 6.953125 0 7.324219 0 Z M 7.324219 0 "/></g></g></g></g><g fill="#08a3f4" fill-opacity="1"><g transform="translate(35.722874, 32.65707)"><g><path d="M 14.820312 -23.460938 L 14.820312 -15.222656 L 8.84375 -15.222656 L 8.84375 -23.460938 C 8.84375 -23.898438 8.609375 -24.136719 8.167969 -24.136719 L 2.9375 -24.136719 C 2.496094 -24.136719 2.261719 -23.898438 2.261719 -23.460938 L 2.261719 -0.675781 C 2.261719 -0.234375 2.496094 0 2.9375 0 L 8.167969 0 C 8.609375 0 8.84375 -0.234375 8.84375 -0.675781 L 8.84375 -9.082031 L 14.820312 -9.082031 L 14.820312 -0.675781 C 14.820312 -0.234375 15.054688 0 15.492188 0 L 20.726562 0 C 21.164062 0 21.402344 -0.234375 21.402344 -0.675781 L 21.402344 -23.460938 C 21.402344 -23.898438 21.164062 -24.136719 20.726562 -24.136719 L 15.492188 -24.136719 C 15.054688 -24.136719 14.820312 -23.898438 14.820312 -23.460938 Z M 14.820312 -23.460938 "/></g></g></g><g fill="#08a3f4" fill-opacity="1"><g transform="translate(59.375457, 32.65707)"><g><path d="M 8.84375 -0.675781 L 8.84375 -23.460938 C 8.84375 -23.898438 8.609375 -24.136719 8.167969 -24.136719 L 2.9375 -24.136719 C 2.496094 -24.136719 2.261719 -23.898438 2.261719 -23.460938 L 2.261719 -0.675781 C 2.261719 -0.234375 2.496094 0 2.9375 0 L 8.167969 0 C 8.609375 0 8.84375 -0.234375 8.84375 -0.675781 Z M 8.84375 -0.675781 "/></g></g></g><g fill="#08a3f4" fill-opacity="1"><g transform="translate(70.476307, 32.65707)"><g><path d="M 1.753906 0 L 19.273438 0 C 19.714844 0 19.949219 -0.234375 19.949219 -0.675781 L 19.949219 -5.46875 C 19.949219 -5.90625 19.714844 -6.144531 19.273438 -6.144531 L 10.226562 -6.144531 L 19.375 -19.511719 C 19.542969 -19.78125 19.644531 -20.050781 19.644531 -20.355469 L 19.644531 -23.460938 C 19.644531 -23.898438 19.410156 -24.136719 18.972656 -24.136719 L 2.496094 -24.136719 C 2.058594 -24.136719 1.824219 -23.898438 1.824219 -23.460938 L 1.824219 -18.699219 C 1.824219 -18.261719 2.058594 -18.027344 2.496094 -18.027344 L 10.667969 -18.027344 L 1.351562 -4.757812 C 1.179688 -4.488281 1.082031 -4.21875 1.082031 -3.914062 L 1.082031 -0.675781 C 1.082031 -0.234375 1.316406 0 1.753906 0 Z M 1.753906 0 "/></g></g></g><g fill="#08a3f4" fill-opacity="1"><g transform="translate(91.632054, 32.65707)"><g><path d="M 21.773438 -9.351562 L 21.773438 -14.851562 C 21.773438 -20.996094 18.027344 -24.609375 11.644531 -24.609375 C 5.265625 -24.609375 1.519531 -20.996094 1.519531 -14.851562 L 1.519531 -9.351562 C 1.519531 -3.171875 5.265625 0.472656 11.644531 0.472656 C 18.027344 0.472656 21.773438 -3.171875 21.773438 -9.351562 Z M 8.269531 -9.519531 L 8.269531 -14.683594 C 8.269531 -17.113281 9.382812 -18.363281 11.644531 -18.363281 C 13.90625 -18.363281 15.019531 -17.113281 15.019531 -14.683594 L 15.019531 -9.519531 C 15.019531 -7.054688 13.90625 -5.773438 11.644531 -5.773438 C 9.382812 -5.773438 8.269531 -7.054688 8.269531 -9.519531 Z M 8.269531 -9.519531 "/></g></g></g><g fill="#08a3f4" fill-opacity="1"><g transform="translate(114.913483, 32.65707)"><g><path d="M 8.84375 -0.675781 L 8.84375 -23.460938 C 8.84375 -23.898438 8.609375 -24.136719 8.167969 -24.136719 L 2.9375 -24.136719 C 2.496094 -24.136719 2.261719 -23.898438 2.261719 -23.460938 L 2.261719 -0.675781 C 2.261719 -0.234375 2.496094 0 2.9375 0 L 8.167969 0 C 8.609375 0 8.84375 -0.234375 8.84375 -0.675781 Z M 8.84375 -0.675781 "/></g></g></g><g fill="#08a3f4" fill-opacity="1"><g transform="translate(126.014334, 32.65707)"><g><path d="M 2.9375 0 L 11.207031 0 C 16.40625 0 21.164062 -1.789062 21.164062 -9.824219 L 21.164062 -14.3125 C 21.164062 -22.210938 16.40625 -24.136719 11.207031 -24.136719 L 2.9375 -24.136719 C 2.496094 -24.136719 2.261719 -23.898438 2.261719 -23.460938 L 2.261719 -0.675781 C 2.261719 -0.234375 2.496094 0 2.9375 0 Z M 8.84375 -6.175781 L 8.84375 -17.957031 L 11.34375 -17.957031 C 13.367188 -17.957031 14.414062 -16.980469 14.414062 -14.75 L 14.414062 -9.417969 C 14.414062 -7.121094 13.367188 -6.175781 11.34375 -6.175781 Z M 8.84375 -6.175781 "/></g></g></g><g clip-path="url(#id2)"><g fill="#08a3f4" fill-opacity="1"><g transform="translate(148.704755, 32.65707)"><g/></g></g></g><g fill="#000000" fill-opacity="1"><g transform="translate(57.632455, 43.613823)"><g><path d="M 5.742188 -2.0625 C 5.742188 -3.378906 4.847656 -3.886719 3.371094 -4.253906 C 2.578125 -4.453125 2.371094 -4.535156 2.371094 -4.800781 C 2.371094 -4.980469 2.542969 -5.121094 3.097656 -5.121094 C 3.585938 -5.121094 4.113281 -4.980469 4.554688 -4.714844 C 4.660156 -4.648438 4.753906 -4.679688 4.820312 -4.773438 L 5.5625 -5.894531 C 5.628906 -5.996094 5.609375 -6.089844 5.507812 -6.15625 C 4.707031 -6.675781 4.011719 -6.863281 3.164062 -6.863281 C 1.675781 -6.863281 0.5 -6.175781 0.5 -4.855469 C 0.5 -3.238281 1.984375 -2.71875 2.910156 -2.542969 C 3.425781 -2.4375 3.851562 -2.296875 3.851562 -2.003906 C 3.851562 -1.789062 3.644531 -1.628906 3.097656 -1.628906 C 2.496094 -1.628906 1.921875 -1.882812 1.402344 -2.242188 C 1.308594 -2.316406 1.203125 -2.296875 1.140625 -2.203125 L 0.359375 -1.082031 C 0.292969 -0.988281 0.300781 -0.894531 0.394531 -0.820312 C 1.234375 -0.152344 1.957031 0.132812 2.945312 0.132812 C 4.828125 0.132812 5.742188 -0.828125 5.742188 -2.0625 Z M 5.742188 -2.0625 "/></g></g></g><g fill="#000000" fill-opacity="1"><g transform="translate(63.628545, 43.613823)"><g><path d="M 5.28125 -6.730469 L 0.300781 -6.730469 C 0.179688 -6.730469 0.113281 -6.664062 0.113281 -6.542969 L 0.113281 -5.207031 C 0.113281 -5.082031 0.179688 -5.015625 0.300781 -5.015625 L 1.875 -5.015625 L 1.875 -0.1875 C 1.875 -0.0664062 1.9375 0 2.0625 0 L 3.519531 0 C 3.644531 0 3.707031 -0.0664062 3.707031 -0.1875 L 3.707031 -5.015625 L 5.28125 -5.015625 C 5.402344 -5.015625 5.46875 -5.082031 5.46875 -5.207031 L 5.46875 -6.542969 C 5.46875 -6.664062 5.402344 -6.730469 5.28125 -6.730469 Z M 5.28125 -6.730469 "/></g></g></g><g fill="#000000" fill-opacity="1"><g transform="translate(69.210467, 43.613823)"><g><path d="M 5.921875 -2.578125 L 5.921875 -6.542969 C 5.921875 -6.664062 5.855469 -6.730469 5.734375 -6.730469 L 4.253906 -6.730469 C 4.132812 -6.730469 4.066406 -6.664062 4.066406 -6.542969 L 4.066406 -2.542969 C 4.066406 -1.929688 3.773438 -1.609375 3.246094 -1.609375 C 2.703125 -1.609375 2.429688 -1.929688 2.429688 -2.542969 L 2.429688 -6.542969 C 2.429688 -6.664062 2.363281 -6.730469 2.242188 -6.730469 L 0.761719 -6.730469 C 0.640625 -6.730469 0.574219 -6.664062 0.574219 -6.542969 L 0.574219 -2.578125 C 0.574219 -0.808594 1.496094 0.132812 3.246094 0.132812 C 4.988281 0.132812 5.921875 -0.808594 5.921875 -2.578125 Z M 5.921875 -2.578125 "/></g></g></g><g fill="#000000" fill-opacity="1"><g transform="translate(75.705452, 43.613823)"><g><path d="M 0.820312 0 L 3.125 0 C 4.574219 0 5.902344 -0.5 5.902344 -2.738281 L 5.902344 -3.992188 C 5.902344 -6.195312 4.574219 -6.730469 3.125 -6.730469 L 0.820312 -6.730469 C 0.695312 -6.730469 0.628906 -6.664062 0.628906 -6.542969 L 0.628906 -0.1875 C 0.628906 -0.0664062 0.695312 0 0.820312 0 Z M 2.464844 -1.722656 L 2.464844 -5.007812 L 3.164062 -5.007812 C 3.726562 -5.007812 4.019531 -4.734375 4.019531 -4.113281 L 4.019531 -2.625 C 4.019531 -1.984375 3.726562 -1.722656 3.164062 -1.722656 Z M 2.464844 -1.722656 "/></g></g></g><g fill="#000000" fill-opacity="1"><g transform="translate(82.040413, 43.613823)"><g><path d="M 2.464844 -0.1875 L 2.464844 -6.542969 C 2.464844 -6.664062 2.398438 -6.730469 2.277344 -6.730469 L 0.820312 -6.730469 C 0.695312 -6.730469 0.628906 -6.664062 0.628906 -6.542969 L 0.628906 -0.1875 C 0.628906 -0.0664062 0.695312 0 0.820312 0 L 2.277344 0 C 2.398438 0 2.464844 -0.0664062 2.464844 -0.1875 Z M 2.464844 -0.1875 "/></g></g></g><g fill="#000000" fill-opacity="1"><g transform="translate(85.137294, 43.613823)"><g><path d="M 6.070312 -2.609375 L 6.070312 -4.140625 C 6.070312 -5.855469 5.027344 -6.863281 3.246094 -6.863281 C 1.46875 -6.863281 0.421875 -5.855469 0.421875 -4.140625 L 0.421875 -2.609375 C 0.421875 -0.886719 1.46875 0.132812 3.246094 0.132812 C 5.027344 0.132812 6.070312 -0.886719 6.070312 -2.609375 Z M 2.304688 -2.65625 L 2.304688 -4.09375 C 2.304688 -4.773438 2.617188 -5.121094 3.246094 -5.121094 C 3.878906 -5.121094 4.1875 -4.773438 4.1875 -4.09375 L 4.1875 -2.65625 C 4.1875 -1.96875 3.878906 -1.609375 3.246094 -1.609375 C 2.617188 -1.609375 2.304688 -1.96875 2.304688 -2.65625 Z M 2.304688 -2.65625 "/></g></g></g><g fill="#000000" fill-opacity="1"><g transform="translate(91.627997, 43.613823)"><g/></g></g></svg>